<svg width="512" height="512" viewBox="0 0 464 489" fill="none" xmlns="http://www.w3.org/2000/svg">
  <path d="M274.04 0C408 0 470.56 71.4 463.76 163.88L463.08 170.68H340.68V163.88C339.32 113.56 312.8 89.76 263.16 89.76C191.08 89.76 128.52 157.76 128.52 286.28C128.52 368.56 165.24 398.48 209.44 398.48C257.04 398.48 293.08 369.24 312.12 317.56L314.84 310.76H437.24L435.2 317.56C403.92 430.44 314.16 488.24 196.52 488.24C79.56 488.24 0 421.6 0 294.44C0 111.52 127.84 0 274.04 0Z" fill="#B59DF8" transform="translate(24 12) scale(0.9)"/>
</svg>
